<?xml version="1.0" encoding="UTF-8"?>
<!-- Generator: visioncortex VTracer 0.6.3 -->
<svg version="1.1" xmlns="http://www.w3.org/2000/svg" width="1280" height="1280">
<path d="M0 0 C422.4 0 844.8 0 1280 0 C1280 422.4 1280 844.8 1280 1280 C857.6 1280 435.2 1280 0 1280 C0 857.6 0 435.2 0 0 Z " fill="#FCFCFC" transform="translate(0,0)"/>
<path d="M0 0 C1.09 -0 2.18 -0.01 3.3 -0.01 C4.51 -0.01 5.72 -0.01 6.96 -0 C8.24 -0.01 9.52 -0.01 10.84 -0.01 C14.42 -0.02 18 -0.01 21.58 -0.01 C25.47 -0.01 29.35 -0.02 33.23 -0.02 C40.95 -0.03 48.67 -0.03 56.38 -0.03 C65.62 -0.03 74.86 -0.04 84.09 -0.05 C106.42 -0.06 128.75 -0.07 151.08 -0.07 C161.63 -0.08 172.19 -0.08 182.74 -0.08 C218.85 -0.1 254.96 -0.11 291.06 -0.11 C293.33 -0.11 295.6 -0.11 297.87 -0.11 C300.14 -0.11 302.41 -0.11 304.68 -0.11 C309.25 -0.11 313.81 -0.11 318.37 -0.11 C320.06 -0.11 320.06 -0.11 321.79 -0.11 C358.48 -0.12 395.17 -0.13 431.86 -0.16 C470.62 -0.18 509.38 -0.19 548.14 -0.2 C552.39 -0.2 556.64 -0.2 560.89 -0.2 C561.93 -0.2 562.98 -0.2 564.06 -0.2 C580.94 -0.2 597.82 -0.21 614.7 -0.22 C631.65 -0.24 648.59 -0.24 665.54 -0.23 C675.62 -0.23 685.71 -0.23 695.79 -0.25 C702.51 -0.26 709.23 -0.26 715.96 -0.25 C719.8 -0.24 723.63 -0.24 727.47 -0.25 C731.59 -0.27 735.72 -0.26 739.84 -0.24 C741.05 -0.25 742.25 -0.26 743.5 -0.27 C745.13 -0.26 745.13 -0.26 746.8 -0.25 C747.74 -0.25 748.69 -0.25 749.66 -0.25 C750.4 -0.12 751.14 0 751.9 0.13 C752.56 1.12 753.22 2.11 753.9 3.13 C752.97 4.88 752.03 6.63 751.09 8.38 C750.57 9.35 750.04 10.33 749.51 11.33 C747.9 14.13 747.9 14.13 746.43 16.03 C744.28 18.98 742.79 22.22 741.21 25.5 C737.94 32.18 734.42 38.63 730.66 45.04 C729.47 47.13 728.34 49.25 727.27 51.4 C725.9 54.13 725.9 54.13 724.34 56.07 C722.66 58.22 722.66 58.22 721.96 61.63 C720.8 65.46 719.69 66.42 716.9 69.13 C715.96 70.92 715.02 72.71 714.16 74.54 C712.54 77.87 710.78 81.12 709.02 84.38 C705.96 90.06 703.07 95.8 700.32 101.64 C698.9 104.13 698.9 104.13 696.83 106.17 C694.69 108.34 694.12 109.79 693.34 112.69 C692.41 116.12 691.4 117.66 688.9 120.13 C688.65 121.26 688.4 122.4 688.15 123.57 C686.78 127.48 685.62 128.43 682.02 130.33 C678.11 131.8 674.23 131.68 670.1 131.62 C669.18 131.63 668.26 131.63 667.32 131.63 C665.39 131.63 663.46 131.62 661.54 131.59 C658.58 131.57 655.62 131.57 652.66 131.59 C650.79 131.58 648.91 131.57 647.04 131.56 C646.15 131.56 645.26 131.57 644.35 131.57 C641.87 131.53 641.87 131.53 637.9 131.13 C637.24 130.14 636.58 129.15 635.9 128.13 C636.64 127.16 637.38 126.19 638.15 125.19 C640.03 122.56 641.47 120.04 642.71 117.07 C644.76 112.16 647.38 107.66 650.08 103.09 C651.99 99.83 653.51 96.63 654.9 93.13 C655.99 91.17 657.12 89.24 658.27 87.32 C660.36 83.8 662.37 80.31 664.15 76.63 C665.9 73.13 665.9 73.13 667.46 71.13 C669.3 68.57 670.11 65.92 671.06 62.93 C671.9 61.13 671.9 61.13 674.9 59.13 C675.58 57.24 675.58 57.24 675.9 55.13 C676.27 53 676.27 53 676.9 51.13 C677.89 50.47 678.88 49.81 679.9 49.13 C680.8 47.31 680.8 47.31 681.4 45.25 C682.49 42.08 683.67 39.68 685.9 37.13 C682.64 36.4 679.62 36 676.28 36 C675.38 36 674.48 36 673.54 36 C672.56 36 671.57 36 670.56 36 C669.5 36 668.44 36 667.35 36 C663.78 36 660.21 36 656.65 36.01 C654.07 36.01 651.5 36.01 648.93 36 C643.32 36 637.71 36 632.1 36.01 C623.76 36.01 615.42 36.01 607.08 36.01 C593.05 36.01 579.02 36.02 564.99 36.02 C551.1 36.03 537.21 36.03 523.32 36.03 C522.45 36.03 521.59 36.03 520.7 36.03 C516.32 36.03 511.93 36.03 507.55 36.03 C476.48 36.04 445.41 36.04 414.35 36.05 C384.17 36.06 353.98 36.07 323.8 36.07 C322.4 36.07 322.4 36.07 320.98 36.07 C311.64 36.07 302.3 36.08 292.96 36.08 C273.93 36.08 254.9 36.08 235.87 36.09 C235 36.09 234.12 36.09 233.22 36.09 C174.78 36.09 116.34 36.11 57.9 36.13 C58.21 36.74 58.51 37.35 58.83 37.97 C59.59 39.51 60.34 41.04 61.09 42.58 C65.06 50.68 69.43 58.51 73.89 66.35 C75.2 68.65 76.45 70.98 77.71 73.32 C79.03 75.72 80.23 77.51 82.02 79.63 C84.66 83.14 85.7 86.95 86.9 91.13 C87.56 91.13 88.22 91.13 88.9 91.13 C89.19 91.72 89.48 92.32 89.78 92.93 C92.58 98.59 95.51 104.16 98.57 109.68 C99.39 111.18 100.17 112.71 100.89 114.26 C101.81 116.18 101.81 116.18 103.36 117.56 C105.33 119.56 106.27 121.66 107.46 124.19 C108.79 127 109.7 128.92 111.9 131.13 C105.89 131.25 99.87 131.34 93.86 131.4 C91.81 131.43 89.77 131.46 87.72 131.5 C84.78 131.57 81.84 131.59 78.89 131.62 C77.98 131.64 77.07 131.67 76.14 131.69 C71.88 131.7 68.86 131.58 65.44 128.88 C63.22 126.47 61.67 124.51 60.23 121.59 C59.6 120.35 59.6 120.35 58.96 119.08 C58.34 117.8 58.34 117.8 57.71 116.5 C56.87 114.8 56.02 113.1 55.17 111.4 C54.8 110.65 54.44 109.9 54.06 109.13 C52.88 107.1 51.6 105.74 49.9 104.13 C48.8 102.15 48.8 102.15 47.84 100.07 C46.67 97.55 45.89 96.12 43.9 94.13 C43.59 93.34 43.28 92.56 42.96 91.75 C42.03 89.12 42.03 89.12 40.4 87.13 C38.9 85.13 38.9 85.13 37.96 82.63 C37.05 80.02 37.05 80.02 34.9 78.25 C32.28 75.47 31.92 72.78 30.9 69.13 C29.57 67.46 28.24 65.79 26.9 64.13 C25.33 61.6 23.9 58.99 22.46 56.38 C22.07 55.67 21.68 54.96 21.28 54.23 C20.5 52.84 19.73 51.44 18.96 50.03 C17.23 46.91 15.45 43.82 13.68 40.73 C12.9 39.13 12.9 39.13 12.9 37.13 C12.24 37.13 11.58 37.13 10.9 37.13 C10.68 36.58 10.46 36.04 10.24 35.48 C8.09 30.38 5.57 26 2.42 21.47 C0.3 18.2 -1.31 14.74 -2.92 11.19 C-4.07 8.83 -4.07 8.83 -7.1 7.13 C-7.29 4 -7.29 4 -7.1 1.13 C-4.57 -0.14 -2.83 0 0 0 Z " fill="#000000" transform="translate(268.1000018119812,327.8723495006561)"/>
<path d="M0 0 C214.17 0 428.34 0 649 0 C649.33 1.65 649.66 3.3 650 5 C648.3 5.9 648.3 5.9 646.56 6.81 C641.72 9.81 638.61 13.81 635.18 18.28 C632.94 21.07 630.57 23.51 628 26 C627.04 26.94 626.09 27.89 625.13 28.83 C624.4 29.56 624.4 29.56 623.65 30.3 C619.73 34.19 615.85 38.06 612.25 42.25 C611.74 42.82 611.22 43.4 610.7 43.99 C608.97 45.94 608.97 45.94 607.7 48.08 C605.32 51.32 603 53.55 598.97 54.46 C592.39 55.25 585.75 55.06 579.14 55 C576.86 55.01 574.58 55.02 572.3 55.04 C566.04 55.07 559.78 55.05 553.52 55.02 C547.46 55 541.41 55.01 535.35 55.03 C522.19 55.07 509.04 55.05 495.88 55.02 C484.37 55 472.86 54.99 461.35 54.99 C460.58 54.99 459.82 54.99 459.03 54.99 C455.93 54.99 452.84 55 449.74 55 C420.66 55.01 391.58 54.98 362.51 54.93 C336.67 54.88 310.84 54.87 285 54.89 C278.39 54.9 271.77 54.9 265.16 54.91 C264.34 54.91 263.53 54.91 262.69 54.91 C241.1 54.92 219.52 54.91 197.93 54.89 C195.61 54.89 193.29 54.89 190.97 54.88 C189.43 54.88 187.88 54.88 186.34 54.88 C174.84 54.87 163.33 54.87 151.83 54.88 C138.75 54.89 125.67 54.88 112.59 54.84 C105.91 54.82 99.23 54.81 92.56 54.82 C86.45 54.84 80.34 54.82 74.23 54.79 C72.02 54.78 69.81 54.78 67.59 54.79 C64.59 54.81 61.59 54.79 58.58 54.76 C57.72 54.77 56.86 54.79 55.97 54.8 C48.19 54.65 43.95 50.94 38.6 45.61 C37.95 44.85 37.3 44.09 36.62 43.31 C35.88 42.46 35.13 41.6 34.36 40.71 C33.19 39.37 33.19 39.37 32 38 C30.3 36.12 28.59 34.25 26.88 32.38 C23.49 28.66 20.16 24.92 16.87 21.12 C15.39 19.44 13.87 17.78 12.35 16.13 C11.66 15.39 11.66 15.39 10.95 14.62 C9.62 13.19 8.28 11.75 6.94 10.32 C5 8 5 8 5 6 C2.52 5.01 2.52 5.01 0 4 C0 2.68 0 1.36 0 0 Z " fill="#000000" transform="translate(317,489)"/>
<path d="M0 0 C4.92 0.23 9.84 0.33 14.77 0.44 C24.37 0.67 33.96 1.04 43.55 1.51 C43.88 2.83 44.21 4.15 44.55 5.51 C43 6.56 43 6.56 41.43 7.64 C34.49 12.84 28.61 19.28 22.55 25.45 C20.1 27.94 17.64 30.43 15.18 32.91 C14.59 33.51 14 34.1 13.4 34.71 C9.81 38.31 6.13 41.75 2.25 45.04 C-0.64 47.54 -3.28 50.28 -5.95 53.01 C-9.31 56.45 -12.71 59.78 -16.36 62.92 C-20.6 66.58 -24.53 70.51 -28.45 74.51 C-29.78 75.87 -31.11 77.22 -32.45 78.57 C-33.03 79.16 -33.6 79.75 -34.2 80.36 C-36.14 82.21 -38.12 83.96 -40.15 85.71 C-44.72 89.68 -48.95 93.94 -53.18 98.25 C-54.83 99.91 -56.47 101.57 -58.11 103.23 C-60.67 105.82 -63.23 108.41 -65.78 111.01 C-68.26 113.54 -70.75 116.05 -73.25 118.57 C-74.01 119.35 -74.77 120.13 -75.56 120.94 C-76.63 122.01 -76.63 122.01 -77.73 123.11 C-78.66 124.06 -78.66 124.06 -79.62 125.03 C-81.58 126.62 -82.98 127.11 -85.45 127.51 C-85.12 128.5 -84.79 129.49 -84.45 130.51 C-78.96 131.44 -73.67 131.65 -68.11 131.64 C-67.2 131.64 -66.29 131.64 -65.35 131.64 C-63.38 131.65 -61.42 131.65 -59.45 131.65 C-55.28 131.65 -51.1 131.67 -46.92 131.69 C-39.15 131.73 -31.37 131.76 -23.6 131.76 C-18.19 131.76 -12.77 131.78 -7.36 131.82 C-5.3 131.83 -3.23 131.83 -1.17 131.83 C1.71 131.82 4.59 131.84 7.46 131.87 C8.31 131.86 9.16 131.85 10.04 131.84 C14.3 131.91 16 132.07 19.41 134.84 C20.12 135.72 20.82 136.6 21.55 137.51 C22.12 138.08 22.69 138.65 23.27 139.24 C23.79 139.76 24.31 140.28 24.84 140.81 C28.13 144.13 31.43 147.44 34.73 150.75 C36.15 152.17 37.56 153.59 38.98 155.01 C41.04 157.08 43.1 159.15 45.16 161.22 C45.78 161.85 46.41 162.47 47.05 163.12 C50.83 166.9 54.72 170.48 58.78 173.97 C61.25 176.12 63.6 178.39 65.93 180.7 C66.76 181.52 67.59 182.34 68.45 183.18 C70.55 185.51 70.55 185.51 72.55 189.51 C-24.14 189.51 -120.83 189.51 -220.45 189.51 C-220.45 186.51 -220.45 186.51 -219.09 184.83 C-218.47 184.22 -217.84 183.62 -217.2 183 C-216.16 181.98 -216.16 181.98 -215.1 180.95 C-214.37 180.25 -213.64 179.55 -212.89 178.82 C-208.8 174.86 -204.75 170.94 -201.05 166.62 C-195.99 160.72 -190.36 155.38 -184.83 149.93 C-181.14 146.27 -177.49 142.64 -174.12 138.68 C-169.02 132.73 -163.33 127.33 -157.76 121.82 C-155.53 119.61 -153.29 117.4 -151.06 115.19 C-150.56 114.69 -150.05 114.19 -149.54 113.68 C-146.61 110.78 -143.99 107.76 -141.45 104.51 C-139.1 102.04 -136.79 99.77 -134.07 97.7 C-131.14 95.25 -128.81 92.55 -126.34 89.65 C-124.45 87.51 -122.48 85.51 -120.45 83.51 C-117.81 80.92 -115.34 78.27 -112.95 75.45 C-110.05 72.07 -106.9 69.24 -103.51 66.37 C-101.65 64.69 -100.08 63 -98.48 61.07 C-92.79 54.48 -86.47 48.47 -80.27 42.36 C-78.63 40.73 -76.99 39.11 -75.36 37.48 C-74.87 37 -74.38 36.52 -73.88 36.02 C-68.2 30.39 -63.14 24.47 -58.48 17.97 C-42.51 -2.65 -24.46 -1.26 0 0 Z " fill="#000000" transform="translate(597.4498291015625,561.4893798828125)"/>
<path d="M0 0 C0.83 -0 1.65 -0 2.5 -0 C3.76 0 3.76 0 5.04 0.01 C6.33 0 6.33 0 7.64 -0 C8.46 -0 9.28 -0 10.12 0 C10.87 0 11.61 0 12.37 0 C14.23 0.13 14.23 0.13 16.23 1.13 C18.09 1.23 19.96 1.26 21.82 1.27 C22.94 1.27 24.05 1.27 25.2 1.27 C26.36 1.27 27.53 1.26 28.73 1.26 C29.9 1.26 31.06 1.27 32.27 1.27 C33.93 1.27 33.93 1.27 35.64 1.27 C36.66 1.26 37.69 1.26 38.74 1.26 C41.23 1.3 41.23 1.3 43.23 0.13 C45.73 -0.04 48.17 -0.14 50.67 -0.18 C51.69 -0.22 51.69 -0.22 52.73 -0.27 C57.72 -0.33 57.72 -0.33 59.93 1.68 C61.71 5.03 61.62 8.06 61.55 11.75 C61.55 12.52 61.55 13.29 61.55 14.09 C61.54 16.67 61.51 19.26 61.48 21.84 C61.47 23.7 61.46 25.55 61.45 27.4 C61.43 32.44 61.38 37.47 61.33 42.5 C61.29 47.76 61.26 53.02 61.22 58.28 C61.16 68.24 61.08 78.19 61 88.15 C60.91 99.49 60.83 110.83 60.75 122.16 C60.6 145.49 60.42 168.81 60.23 192.13 C58.29 192.7 58.29 192.7 56.23 193.13 C55.9 192.8 55.57 192.47 55.23 192.13 C53.22 192.05 51.2 192.04 49.18 192.05 C47.24 192.06 47.24 192.06 45.26 192.07 C44.56 192.08 43.87 192.08 43.15 192.09 C40.98 192.11 38.8 192.12 36.63 192.12 C30.45 192.15 24.28 192.18 18.1 192.23 C14.32 192.26 10.55 192.27 6.77 192.28 C5.33 192.29 3.89 192.3 2.45 192.31 C0.44 192.33 -1.58 192.34 -3.59 192.34 C-4.74 192.35 -5.89 192.36 -7.07 192.37 C-9.77 192.13 -9.77 192.13 -11.77 190.13 C-11.96 187.62 -12.03 185.23 -12.01 182.72 C-12.01 181.94 -12.01 181.17 -12.02 180.37 C-12.02 177.77 -12.01 175.16 -12 172.56 C-12 170.69 -12 168.83 -12 166.97 C-12 161.9 -11.99 156.83 -11.97 151.77 C-11.96 146.47 -11.96 141.18 -11.96 135.89 C-11.95 125.86 -11.93 115.84 -11.91 105.81 C-11.89 94.4 -11.88 82.99 -11.87 71.57 C-11.85 48.09 -11.81 24.61 -11.77 1.13 C-7.82 0.55 -3.99 0.01 0 0 Z " fill="#000000" transform="translate(767.76953125,561.8671875)"/>
<path d="M0 0 C4.57 -0.27 9.14 -0.47 13.71 -0.6 C15.27 -0.66 16.82 -0.73 18.37 -0.83 C23.44 -1.13 28.04 -1.19 33 0 C36.52 3.18 38.16 6.69 40 11 C40.77 12.35 41.56 13.69 42.37 15.01 C43.06 16.23 43.75 17.46 44.44 18.69 C44.81 19.35 45.19 20.02 45.57 20.71 C48.63 26.21 51.42 31.82 54.18 37.47 C56.39 41.93 58.83 46.07 61.77 50.11 C63 52 63 52 63.91 54.36 C65.23 57.55 67.08 60.13 69 63 C70.33 65.46 71.54 67.98 72.75 70.5 C77 79.16 81.62 87.58 86.73 95.77 C88 98 88 98 88 100 C88.66 100 89.32 100 90 100 C90.22 100.52 90.44 101.05 90.67 101.59 C93.38 107.86 96.51 113.83 99.81 119.81 C100.34 120.78 100.87 121.74 101.41 122.73 C104.79 128.88 108.25 134.96 111.89 140.95 C113 143 113 143 113 145 C113.66 145 114.32 145 115 145 C115.33 145.66 115.66 146.32 116 147 C120.34 145.55 121.38 142.26 123.44 138.44 C123.82 137.75 124.2 137.05 124.6 136.34 C126.88 132.18 129.03 127.98 131.08 123.7 C132 122 132 122 134.06 119.44 C136.4 116.5 137.56 113.45 139 110 C140 108.67 141 107.33 142 106 C143.01 104.2 143.98 102.39 144.94 100.56 C146.57 97.51 148.05 94.93 150.25 92.25 C152.24 89.99 152.24 89.99 152.94 86.56 C154.18 82.38 156.19 80.29 159 77 C159.73 75.29 160.46 73.59 161.17 71.87 C162.51 68.86 164.29 66.15 166.06 63.38 C168.89 58.97 168.89 58.97 171.06 54.23 C172 52 172 52 175 50 C175.31 48.89 175.62 47.77 175.94 46.62 C177 43 177 43 178.81 41.28 C181.77 38.2 183.27 34.77 185.06 30.94 C185.74 29.51 186.41 28.08 187.1 26.65 C187.39 26.02 187.69 25.39 187.99 24.75 C189 23 189 23 190.53 21.5 C192.32 19.86 192.32 19.86 193.5 16.38 C194.24 14.7 194.24 14.7 195 13 C195.99 12.67 196.98 12.34 198 12 C198.64 9.75 198.89 7.54 199.18 5.23 C200.36 2.02 201.95 1.46 205 0 C208.29 -0.36 208.29 -0.36 211.98 -0.33 C212.63 -0.33 213.29 -0.32 213.96 -0.32 C215.34 -0.32 216.71 -0.3 218.08 -0.28 C220.19 -0.25 222.3 -0.24 224.4 -0.23 C234.67 -0.16 234.67 -0.16 237 1 C235.55 4.78 233.88 8.38 232.06 12 C231.56 13.01 231.05 14.02 230.54 15.06 C228.68 18.61 226.64 21.99 224.5 25.38 C222.87 28.1 222.87 28.1 221.5 31.62 C220.13 34.7 219.26 35.74 217 38 C216.69 38.97 216.38 39.94 216.06 40.94 C214.88 44.34 213.51 45.49 211 48 C210.3 49.59 209.61 51.19 208.98 52.81 C207.7 55.68 206.11 58.3 204.5 61 C202.57 64.24 200.72 67.38 199.31 70.88 C197.9 74.24 196.04 76.98 194 80 C193.67 80.83 193.34 81.65 193 82.5 C191.74 85.66 189.92 88.2 188 91 C184.83 96.17 181.96 101.49 179.06 106.81 C178.54 107.77 178.01 108.73 177.47 109.72 C175.14 113.99 172.86 118.25 170.75 122.64 C169 126 169 126 167 127 C166.24 128.98 166.24 128.98 165.62 131.31 C164.39 135.27 163.04 137.15 160 140 C159.3 141.6 158.61 143.19 157.98 144.82 C156.22 148.74 153.9 152.37 151.71 156.06 C150.3 158.49 148.99 160.92 147.75 163.44 C145.91 167.18 143.84 170.66 141.62 174.19 C140.18 176.69 138.9 179.21 137.62 181.81 C135.78 185.54 133.78 189.02 131.54 192.51 C127.82 198.55 124.45 204.81 121 211 C116.25 210.12 116.25 210.12 114 209 C113.71 207.91 113.42 206.81 113.12 205.69 C112.32 202.02 112.32 202.02 110.06 200.06 C107.72 197.72 107.09 195.57 106.04 192.48 C103.73 186.99 100.18 182.02 97 177 C94.13 172.25 91.65 167.33 89.25 162.33 C88.01 160.03 86.58 158.08 85 156 C84.69 155.22 84.38 154.43 84.06 153.62 C83.05 150.87 83.05 150.87 81.12 148.19 C79.56 145.85 78.33 143.75 77.12 141.25 C75.14 137.16 72.82 133.34 70.45 129.46 C69.12 127.2 67.95 124.93 66.81 122.56 C65.3 119.14 65.3 119.14 63.41 117.43 C62 116 62 116 61.56 113.56 C61.21 110.88 61.21 110.88 59.12 109.12 C56.4 106.4 55.47 103.55 54 100 C53.4 99.11 52.8 98.23 52.19 97.31 C49.57 93.35 47.6 89.19 45.56 84.9 C44.08 81.93 44.08 81.93 41.88 79.35 C40 77 40 77 39 73.44 C37.91 69.68 36.73 68.65 34 66 C32.81 62.94 32.81 62.94 32 60 C31.67 59.01 31.34 58.02 31 57 C30.34 57 29.68 57 29 57 C28.56 56.09 28.56 56.09 28.12 55.16 C25.46 49.74 22.57 44.55 19.43 39.4 C14 30.27 14 30.27 14 27 C13.01 26.67 12.02 26.34 11 26 C10.29 23.69 9.99 21.42 9.62 19.03 C9.42 18.36 9.21 17.69 9 17 C8.01 16.67 7.02 16.34 6 16 C4.95 13.69 3.96 11.35 3 9 C2.44 8.3 1.89 7.6 1.31 6.88 C-0.38 4.46 -0.1 2.89 0 0 Z " fill="#010101" transform="translate(523,775)"/>
<path d="M0 0 C0 0.66 0 1.32 0 2 C1.32 2.66 2.64 3.32 4 4 C-264.78 4.5 -264.78 4.5 -539 5 C-536.69 8.96 -534.38 12.92 -532 17 C-528.82 23.46 -528.82 23.46 -530 27 C-530.44 26.17 -530.87 25.33 -531.32 24.47 C-534.57 18.32 -537.88 12.41 -542.03 6.8 C-542.35 6.21 -542.67 5.61 -543 5 C-542.67 4.01 -542.34 3.02 -542 2 C-538.7 0.35 -535.02 0.86 -531.39 0.86 C-530.49 0.86 -529.58 0.86 -528.65 0.85 C-525.58 0.84 -522.51 0.84 -519.44 0.84 C-517.23 0.84 -515.02 0.83 -512.81 0.83 C-506.71 0.81 -500.61 0.81 -494.51 0.8 C-488.62 0.79 -482.72 0.78 -476.83 0.77 C-464.77 0.74 -452.71 0.73 -440.65 0.71 C-428.7 0.69 -416.75 0.67 -404.8 0.65 C-403.68 0.65 -403.68 0.65 -402.55 0.65 C-398.78 0.64 -395.01 0.64 -391.24 0.63 C-364.51 0.58 -337.79 0.54 -311.06 0.5 C-285.11 0.46 -259.15 0.42 -233.2 0.37 C-232.4 0.37 -231.6 0.37 -230.77 0.37 C-222.74 0.35 -214.72 0.34 -206.69 0.33 C-190.32 0.3 -173.96 0.27 -157.59 0.24 C-156.46 0.24 -156.46 0.24 -155.31 0.24 C-121.41 0.18 -87.52 0.13 -53.63 0.08 C-52.35 0.07 -51.07 0.07 -49.75 0.07 C-42.53 0.06 -35.31 0.05 -28.09 0.04 C-25.93 0.03 -23.77 0.03 -21.62 0.03 C-18.7 0.02 -15.78 0.02 -12.86 0.01 C-11.58 0.01 -11.58 0.01 -10.29 0.01 C-6.86 0 -3.43 0 0 0 Z " fill="#C2C2C2" transform="translate(909,386)"/>
<path d="M0 0 C0.33 0 0.66 0 1 0 C1.07 23.7 1.12 47.41 1.16 71.11 C1.17 82.12 1.19 93.13 1.23 104.14 C1.26 113.73 1.28 123.33 1.28 132.92 C1.29 138 1.3 143.08 1.32 148.16 C1.34 152.94 1.34 157.73 1.34 162.51 C1.34 164.26 1.35 166.02 1.36 167.77 C1.43 178.99 1.35 188.76 -6 198 C-15.12 206.7 -24.01 209.07 -36.34 209.32 C-37.65 209.35 -37.65 209.35 -39 209.38 C-41.79 209.44 -44.58 209.5 -47.38 209.56 C-49.27 209.61 -51.17 209.65 -53.07 209.69 C-57.72 209.8 -62.36 209.9 -67 210 C-67.31 210.97 -67.61 211.93 -67.92 212.93 C-70.39 220.6 -73.07 227.9 -76.81 235.06 C-77.25 235.91 -77.68 236.76 -78.12 237.63 C-81.86 244.88 -85.88 251.95 -90 259 C-91.47 261.56 -92.93 264.12 -94.38 266.69 C-94.75 267.35 -95.12 268 -95.5 268.68 C-98.46 273.96 -101.27 279.32 -104.06 284.69 C-107.45 291.19 -111.03 297.44 -114.94 303.64 C-120.75 313.12 -125.95 322.98 -131.12 332.81 C-133.51 337.34 -136.03 341.73 -138.75 346.06 C-146.33 358.17 -152.87 370.92 -159.5 383.56 C-163.41 391.01 -167.55 398.32 -171.76 405.6 C-174.35 410.08 -176.84 414.58 -179.19 419.19 C-183.92 427.97 -192.21 437.88 -202 441 C-205.7 441.3 -205.7 441.3 -209.69 441.31 C-210.7 441.34 -210.7 441.34 -211.74 441.36 C-213.7 441.36 -213.7 441.36 -217 441 C-217.99 439.51 -217.99 439.51 -219 438 C-216.37 437.97 -213.75 437.95 -211.12 437.94 C-210.38 437.93 -209.63 437.92 -208.86 437.91 C-203.23 437.89 -203.23 437.89 -201 439 C-200.67 438.34 -200.34 437.68 -200 437 C-199.09 436.57 -198.18 436.14 -197.24 435.69 C-193.71 433.85 -191.73 431.92 -189.12 428.94 C-188.34 428.06 -187.56 427.18 -186.76 426.28 C-184.8 424.22 -184.8 424.22 -185 422 C-184.34 421.34 -183.68 420.68 -183 420 C-181.95 417.76 -181.03 415.48 -180.1 413.19 C-179 411 -179 411 -177.57 409.59 C-175.94 407.94 -174.91 406.37 -173.77 404.35 C-173.38 403.65 -172.99 402.96 -172.59 402.24 C-172.19 401.52 -171.79 400.8 -171.38 400.06 C-170.76 398.99 -170.76 398.99 -170.14 397.89 C-167.93 394.03 -167.93 394.03 -166.47 389.85 C-166 388 -166 388 -164.56 386.62 C-162.41 384.39 -161.95 381.91 -161 379 C-160.34 378.67 -159.68 378.34 -159 378 C-158.86 377.22 -158.71 376.43 -158.56 375.62 C-158 373 -158 373 -156.59 371.65 C-154.61 369.59 -153.96 367.68 -153 365 C-151.76 361.54 -150.67 359.5 -148 357 C-147.26 355.51 -147.26 355.51 -146.5 354 C-145 351 -145 351 -143.38 349.44 C-141.8 348.05 -141.8 348.05 -141.56 345.75 C-140.63 341.19 -138.3 337.3 -135 334 C-133.43 330.72 -131.99 327.4 -130.54 324.07 C-129.14 321.28 -128.16 320.09 -126 318 C-124.56 315.73 -123.2 313.46 -121.88 311.12 C-121.52 310.51 -121.16 309.9 -120.79 309.27 C-118.83 305.84 -117.62 302.89 -117 299 C-115.62 297.5 -115.62 297.5 -114 296 C-112.96 294.36 -111.96 292.69 -111 291 C-110.55 290.28 -110.09 289.56 -109.62 288.81 C-107.31 284.8 -105.48 280.59 -103.61 276.35 C-102.1 273.03 -100.74 270.43 -98 268 C-97.84 267.34 -97.67 266.68 -97.5 266 C-96.89 263.56 -95.78 262.71 -94 261 C-94 260.34 -94 259.68 -94 259 C-93 258 -92 257 -91 256 C-91 255.34 -91 254.68 -91 254 C-90.34 254 -89.68 254 -89 254 C-88.71 252.72 -88.42 251.44 -88.12 250.12 C-87.46 247.18 -87.2 246.2 -85 244 C-84.67 243.01 -84.34 242.02 -84 241 C-83.56 240.58 -83.12 240.17 -82.66 239.74 C-80.26 237.22 -78.9 234.22 -77.38 231.12 C-76.91 230.21 -76.91 230.21 -76.43 229.27 C-74.74 225.87 -73.53 222.76 -73 219 C-72.34 219 -71.68 219 -71 219 C-71.25 217.93 -71.5 216.86 -71.75 215.75 C-72 212 -72 212 -70.19 209.56 C-68 208 -68 208 -66 208 C-66 207.34 -66 206.68 -66 206 C-64.7 205.99 -63.41 205.97 -62.07 205.96 C-57.24 205.9 -52.41 205.82 -47.59 205.74 C-45.5 205.7 -43.41 205.68 -41.33 205.65 C-38.32 205.62 -35.31 205.57 -32.31 205.51 C-31.38 205.51 -30.46 205.5 -29.5 205.49 C-20.38 205.29 -13.41 202.28 -6.75 195.81 C-4.71 192.53 -4.06 189.66 -3.39 185.89 C-3 184 -3 184 -2 183 C-1.96 181 -1.96 179 -2 177 C-1.34 177 -0.68 177 0 177 C0 118.59 0 60.18 0 0 Z " fill="#C2C2C2" transform="translate(852,569)"/>
<path d="M0 0 C5.26 4.39 10.17 9.02 15 13.88 C15.67 14.54 16.35 15.21 17.04 15.9 C20.99 19.86 24.73 23.94 28.39 28.17 C30.58 30.66 32.9 32.98 35.31 35.25 C36.15 36.06 37 36.87 37.86 37.7 C46.65 44.14 55.3 44.57 65.9 44.45 C67.38 44.45 68.86 44.45 70.34 44.46 C74.33 44.46 78.32 44.43 82.3 44.41 C86.48 44.38 90.66 44.38 94.84 44.37 C102.73 44.36 110.63 44.33 118.53 44.29 C127.52 44.24 136.52 44.22 145.52 44.2 C164.01 44.16 182.51 44.09 201 44 C201 44.66 201 45.32 201 46 C203.31 46 205.62 46 208 46 C208 46.33 208 46.66 208 47 C203.84 47.79 199.92 48.12 195.69 48.1 C194.44 48.1 193.19 48.1 191.91 48.09 C190.54 48.09 189.17 48.08 187.8 48.07 C186.35 48.06 184.89 48.06 183.44 48.05 C179.51 48.04 175.57 48.02 171.63 48 C169.17 47.98 166.71 47.97 164.25 47.96 C156.53 47.92 148.81 47.88 141.1 47.83 C132.21 47.77 123.32 47.73 114.43 47.7 C107.55 47.67 100.67 47.64 93.78 47.59 C89.68 47.57 85.57 47.54 81.47 47.53 C77.6 47.52 73.74 47.5 69.88 47.46 C68.46 47.45 67.05 47.45 65.64 47.45 C51.02 47.44 40.88 44.73 30.26 34.29 C24.2 28.08 18.44 21.58 12.8 14.98 C9.86 11.74 6.71 8.7 3.55 5.68 C2.33 4.49 1.16 3.25 0 2 C0 1.34 0 0.68 0 0 Z " fill="#C2C2C2" transform="translate(311,520)"/>
<path d="M0 0 C2.8 4.71 1.97 8.79 1 14 C-1.08 21.45 -6.18 26.08 -12.71 29.86 C-21.85 34.41 -33.08 33.35 -43.04 33.41 C-44.77 33.43 -46.51 33.45 -48.24 33.47 C-52.78 33.52 -57.31 33.56 -61.84 33.6 C-66.48 33.64 -71.12 33.69 -75.76 33.74 C-84.84 33.84 -93.92 33.92 -103 34 C-102.35 37.53 -101.54 40.23 -99.78 43.37 C-99.33 44.18 -98.87 45 -98.41 45.84 C-97.92 46.69 -97.44 47.55 -96.94 48.44 C-96.44 49.34 -95.94 50.24 -95.42 51.16 C-92.7 56.03 -89.93 60.87 -87.12 65.69 C-82.76 73.26 -78.8 81.03 -74.8 88.79 C-71.2 95.77 -67.45 102.61 -63.39 109.33 C-62.03 111.94 -61.4 114.1 -61 117 C-64.77 112.63 -67.54 107.88 -70.38 102.88 C-71.15 101.52 -71.15 101.52 -71.94 100.13 C-76.87 91.39 -81.47 82.48 -86.05 73.56 C-89.65 66.56 -93.35 59.67 -97.32 52.89 C-99.56 49.04 -101.67 45.13 -103.77 41.21 C-105.06 38.82 -105.06 38.82 -107 36 C-106.75 33.88 -106.75 33.88 -106 32 C-105.34 31.67 -104.68 31.34 -104 31 C-103.34 31.33 -102.68 31.66 -102 32 C-102 31.34 -102 30.68 -102 30 C-100.44 29.99 -100.44 29.99 -98.86 29.98 C-89.07 29.92 -79.29 29.85 -69.51 29.76 C-64.48 29.72 -59.45 29.68 -54.42 29.65 C-49.56 29.63 -44.7 29.59 -39.85 29.54 C-38 29.52 -36.15 29.51 -34.3 29.5 C-31.7 29.49 -29.1 29.46 -26.51 29.43 C-25.37 29.43 -25.37 29.43 -24.2 29.44 C-16.75 29.31 -11.03 26.73 -5.45 21.76 C-2.98 18.76 -2.59 15.8 -2 12 C-1.34 12 -0.68 12 0 12 C-0.08 11.3 -0.17 10.6 -0.25 9.88 C-0.41 8.52 -0.41 8.52 -0.56 7.12 C-0.72 5.77 -0.72 5.77 -0.88 4.38 C-1 2 -1 2 0 0 Z " fill="#C2C2C2" transform="translate(693,745)"/>
<path d="M0 0 C4.11 3.97 5.17 5.83 5.31 11.56 C5.16 24.17 -2.51 32.66 -11.11 41.2 C-12.99 43.03 -14.87 44.86 -16.75 46.69 C-22.93 52.74 -28.99 58.75 -34.19 65.69 C-42.94 77.32 -52.86 88.29 -67.95 90.61 C-72.19 90.88 -76.43 90.79 -80.68 90.68 C-82.23 90.67 -83.78 90.66 -85.33 90.65 C-89.36 90.63 -93.38 90.56 -97.41 90.48 C-101.54 90.41 -105.67 90.38 -109.8 90.34 C-117.87 90.27 -125.93 90.15 -134 90 C-133.67 89.01 -133.34 88.02 -133 87 C-132.15 87.01 -131.31 87.01 -130.43 87.02 C-122.43 87.08 -114.43 87.13 -106.43 87.16 C-102.31 87.17 -98.2 87.19 -94.08 87.23 C-90.11 87.26 -86.13 87.28 -82.16 87.28 C-80.65 87.29 -79.14 87.3 -77.62 87.32 C-66.46 87.49 -66.46 87.49 -56 84 C-55.34 83.34 -54.68 82.68 -54 82 C-53.11 81.44 -52.23 80.89 -51.31 80.31 C-45.34 76.34 -41.12 71.21 -36.94 65.44 C-31.14 57.54 -24.03 50.84 -17.02 44.04 C-5.31 33.18 -5.31 33.18 1 19 C1.33 18.67 1.66 18.34 2 18 C1.94 15.91 1.8 13.83 1.62 11.75 C1.53 10.61 1.44 9.47 1.35 8.3 C1.05 5.47 0.61 2.77 0 0 Z " fill="#C2C2C2" transform="translate(988,477)"/>
<path d="M0 0 C16.34 0.04 32.68 0.1 49.03 0.18 C56.61 0.22 64.2 0.26 71.79 0.27 C78.4 0.28 85.02 0.31 91.63 0.35 C95.13 0.38 98.63 0.39 102.14 0.39 C106.05 0.39 109.96 0.42 113.87 0.45 C115.03 0.45 116.19 0.44 117.38 0.44 C125.27 0.54 125.27 0.54 129.26 3.03 C129.83 3.68 130.41 4.33 131 5 C114.68 4.92 98.35 4.82 82.03 4.71 C74.45 4.66 66.87 4.62 59.29 4.58 C52.68 4.55 46.07 4.51 39.46 4.46 C35.96 4.43 32.47 4.41 28.97 4.4 C25.06 4.38 21.15 4.35 17.25 4.32 C16.09 4.32 14.93 4.31 13.74 4.31 C8.46 4.26 3.93 4.16 -1 2 C-0.67 1.34 -0.34 0.68 0 0 Z " fill="#C2C2C2" transform="translate(370,774)"/>
<path d="M0 0 C3 2 3 2 4 5 C5.78 23 -4.19 38.32 -12.86 53.23 C-15.39 57.63 -17.72 62.13 -20.06 66.62 C-23.85 73.88 -27.82 80.97 -32 88 C-36.28 95.34 -40.42 102.73 -44.38 110.25 C-47.63 116.43 -50.91 122.61 -54.25 128.75 C-54.65 129.5 -55.05 130.25 -55.46 131.02 C-57.85 135.38 -60.3 138.67 -64 142 C-62.93 138.98 -61.76 136.66 -59.94 134 C-58.06 131.09 -57.53 129.35 -57 126 C-56.09 123.78 -55.32 122.3 -53.57 120.65 C-51.8 118.79 -50.87 117.06 -49.75 114.75 C-49.33 113.88 -48.9 113.01 -48.46 112.11 C-47.36 109.77 -46.27 107.43 -45.19 105.08 C-44.72 104.07 -44.72 104.07 -44.25 103.04 C-43.63 101.69 -43.02 100.35 -42.41 99 C-41.16 96.27 -40.15 94.15 -38 92 C-37.1 90.85 -36.23 89.68 -35.38 88.5 C-34.93 87.89 -34.48 87.28 -34.02 86.66 C-32.82 85.04 -32.82 85.04 -33 83 C-32.01 82.01 -32.01 82.01 -31 81 C-29.16 78.87 -28.09 77.48 -27.56 74.68 C-26.95 71.78 -25.96 69.52 -24.62 66.88 C-23.99 65.6 -23.99 65.6 -23.35 64.3 C-22.08 62.14 -20.8 60.72 -19 59 C-17.98 57.01 -16.98 55.01 -16 53 C-15.16 51.66 -14.3 50.33 -13.44 49 C-11.37 45.76 -10.09 42.7 -9 39 C-8.03 36.74 -7.31 35.29 -5.5 33.62 C-3.41 31.36 -2.84 28.92 -2 26 C-1.34 26 -0.68 26 0 26 C-0.19 25.46 -0.37 24.93 -0.56 24.38 C-1 22 -1 22 -0.53 19.38 C0.09 15.41 0.11 11.63 0.06 7.62 C0.06 6.89 0.05 6.15 0.05 5.39 C0.04 3.6 0.02 1.8 0 0 Z " fill="#C2C2C2" transform="translate(1041,320)"/>
<path d="M0 0 C0.66 1.32 1.32 2.64 2 4 C-0.47 5.24 -2.07 5.12 -4.84 5.11 C-5.87 5.11 -6.89 5.1 -7.95 5.1 C-9.09 5.1 -10.23 5.09 -11.4 5.08 C-12.6 5.08 -13.81 5.08 -15.05 5.07 C-18.39 5.06 -21.74 5.05 -25.09 5.03 C-28.69 5.01 -32.3 5 -35.91 4.99 C-42.16 4.97 -48.41 4.95 -54.66 4.92 C-63.7 4.88 -72.74 4.85 -81.77 4.82 C-96.44 4.76 -111.1 4.71 -125.76 4.65 C-140.01 4.59 -154.25 4.53 -168.5 4.48 C-169.38 4.48 -170.25 4.48 -171.16 4.47 C-175.56 4.46 -179.96 4.44 -184.37 4.42 C-220.91 4.29 -257.46 4.15 -294 4 C-294 3.67 -294 3.34 -294 3 C-196.98 3 -99.96 3 0 3 C0 2.01 0 1.02 0 0 Z " fill="#C2C2C2" transform="translate(671,749)"/>
<path d="M0 0 C0.99 0.5 0.99 0.5 2 1 C0.98 9.44 -4.49 14.93 -10.26 20.63 C-10.98 21.36 -11.7 22.08 -12.45 22.83 C-14.84 25.23 -17.23 27.61 -19.63 29.99 C-21.3 31.66 -22.97 33.34 -24.64 35.01 C-28.15 38.51 -31.66 42.01 -35.17 45.5 C-39.65 49.96 -44.11 54.43 -48.58 58.9 C-52.03 62.35 -55.49 65.8 -58.95 69.25 C-60.59 70.9 -62.24 72.54 -63.88 74.19 C-83.08 93.39 -83.08 93.39 -93 100 C-91.43 96.02 -88.85 93.81 -85.69 91 C-84.6 90.02 -83.5 89.04 -82.41 88.05 C-81.57 87.3 -81.57 87.3 -80.7 86.53 C-69.2 76.23 -57.76 65.72 -47.73 53.96 C-42.17 47.67 -36.05 41.97 -29.67 36.52 C-27.5 34.55 -25.82 32.29 -24 30 C-22.91 29.04 -21.81 28.11 -20.69 27.19 C-17.34 24.4 -14.58 21.34 -11.77 18.02 C-10 16 -8.13 14.16 -6.19 12.31 C-3.55 9.72 -1.98 7.64 -1 4 C-0.79 3.24 -0.59 2.47 -0.38 1.69 C-0.19 0.85 -0.19 0.85 0 0 Z " fill="#C2C2C2" transform="translate(661,571)"/>
<path d="M0 0 C7.75 -0.07 15.51 -0.12 23.26 -0.16 C26.86 -0.17 30.46 -0.19 34.06 -0.23 C37.54 -0.26 41.01 -0.28 44.49 -0.28 C46.46 -0.29 48.43 -0.32 50.4 -0.34 C52.2 -0.34 52.2 -0.34 54.04 -0.34 C55.1 -0.35 56.15 -0.35 57.24 -0.36 C60 0 60 0 64 3 C42.55 3 21.1 3 -1 3 C-0.67 2.01 -0.34 1.02 0 0 Z " fill="#C2C2C2" transform="translate(668,564)"/>
<path d="M0 0 C21.12 0 42.24 0 64 0 C64 0.99 64 1.98 64 3 C56.39 3.02 48.79 3.04 41.18 3.05 C37.65 3.06 34.12 3.06 30.58 3.08 C26.52 3.09 22.46 3.09 18.39 3.1 C17.13 3.1 15.87 3.11 14.56 3.11 C13.38 3.11 12.2 3.11 10.98 3.11 C9.95 3.12 8.91 3.12 7.84 3.12 C5.12 3.01 2.65 2.61 0 2 C0 1.34 0 0.68 0 0 Z " fill="#C2C2C2" transform="translate(759,753)"/>
<path d="M0 0 C0.66 0.33 1.32 0.66 2 1 C-4.22 7.26 -10.44 13.52 -16.67 19.78 C-19.56 22.68 -22.45 25.58 -25.34 28.49 C-28.13 31.3 -30.91 34.1 -33.71 36.9 C-34.77 37.97 -35.84 39.04 -36.9 40.11 C-38.38 41.61 -39.87 43.1 -41.37 44.59 C-42.21 45.45 -43.06 46.3 -43.94 47.18 C-46 49 -46 49 -48 49 C-46.52 45.58 -44.61 43.36 -41.98 40.74 C-41.15 39.91 -40.33 39.08 -39.47 38.22 C-38.58 37.33 -37.68 36.44 -36.76 35.53 C-35.38 34.15 -35.38 34.15 -33.97 32.74 C-32.02 30.8 -30.08 28.86 -28.12 26.92 C-25.63 24.44 -23.14 21.95 -20.65 19.47 C-18.27 17.09 -15.89 14.71 -13.51 12.34 C-12.62 11.45 -11.72 10.56 -10.81 9.64 C-9.97 8.81 -9.14 7.99 -8.28 7.13 C-7.18 6.04 -7.18 6.04 -6.06 4.93 C-4.13 3.12 -2.15 1.54 0 0 Z " fill="#C2C2C2" transform="translate(525,588)"/>
<path d="M0 0 C4.58 2.41 7.77 5.57 11.31 9.25 C15.54 13.56 19.81 17.71 24.41 21.64 C26.39 23.33 28.27 25.05 30 27 C30 27.66 30 28.32 30 29 C30.54 29.21 31.07 29.41 31.62 29.62 C34.92 31.53 37.59 34.05 40 37 C40 37.66 40 38.32 40 39 C36.92 37.63 34.82 36.06 32.46 33.67 C31.78 32.99 31.11 32.31 30.41 31.62 C29.7 30.88 28.98 30.15 28.24 29.4 C27.5 28.65 26.75 27.9 25.99 27.13 C23.61 24.74 21.24 22.34 18.88 19.94 C16.5 17.53 14.12 15.13 11.74 12.73 C10.26 11.24 8.78 9.74 7.31 8.25 C6.31 7.23 6.31 7.23 5.28 6.2 C4.7 5.61 4.11 5.01 3.5 4.4 C2.03 2.9 2.03 2.9 0 2 C0 1.34 0 0.68 0 0 Z " fill="#C2C2C2" transform="translate(631,678)"/>
<path d="M0 0 C3.12 -0.03 6.25 -0.05 9.38 -0.06 C10.71 -0.08 10.71 -0.08 12.07 -0.09 C13.35 -0.09 13.35 -0.09 14.65 -0.1 C15.43 -0.1 16.22 -0.11 17.03 -0.11 C19 0 19 0 21 1 C21 1.66 21 2.32 21 3 C13.74 3 6.48 3 -1 3 C-0.67 2.01 -0.34 1.02 0 0 Z " fill="#4C4C4C" transform="translate(763,562)"/>
<path d="M0 0 C0.69 -0.02 1.38 -0.04 2.09 -0.06 C4.09 -0.08 4.09 -0.08 7.5 0.25 C8.16 1.24 8.82 2.23 9.5 3.25 C3.23 3.25 -3.04 3.25 -9.5 3.25 C-9.5 2.59 -9.5 1.93 -9.5 1.25 C-6.47 -0.27 -3.33 0.02 0 0 Z " fill="#4A4A4A" transform="translate(818.5,561.75)"/>
<path d="M0 0 C0.33 0.66 0.66 1.32 1 2 C-0.24 4.29 -1.53 6.44 -2.94 8.62 C-3.32 9.24 -3.71 9.85 -4.11 10.48 C-5.06 11.99 -6.03 13.5 -7 15 C-7.99 14.67 -8.98 14.34 -10 14 C-8.85 11.53 -7.95 9.95 -6 8 C-5.53 7.2 -5.05 6.39 -4.56 5.56 C-3.2 3.33 -1.93 1.74 0 0 Z " fill="#C3C3C3" transform="translate(744,857)"/>
<path d="M0 0 C4.94 4.23 7.32 9.13 10 15 C9.01 15.5 9.01 15.5 8 16 C6.66 13.9 5.33 11.8 4 9.69 C3.62 9.09 3.24 8.5 2.84 7.88 C0 3.34 0 3.34 0 0 Z " fill="#C2C2C2" transform="translate(381,414)"/>
<path d="M0 0 C1.49 0.99 1.49 0.99 3 2 C3.29 4.16 3.29 4.16 3.19 6.62 C3.16 7.44 3.13 8.26 3.11 9.1 C3.07 9.73 3.04 10.35 3 11 C2.01 10.34 1.02 9.68 0 9 C-0.29 6.84 -0.29 6.84 -0.19 4.38 C-0.16 3.56 -0.13 2.74 -0.11 1.9 C-0.05 0.96 -0.05 0.96 0 0 Z " fill="#C2C2C2" transform="translate(397,447)"/>
</svg>
